<?xml version="1.0" encoding="utf-8"?>
<!-- Generator: Adobe Illustrator 16.0.0, SVG Export Plug-In . SVG Version: 6.00 Build 0)  -->
<!DOCTYPE svg PUBLIC "-//W3C//DTD SVG 1.1//EN" "http://www.w3.org/Graphics/SVG/1.1/DTD/svg11.dtd">
<svg version="1.1" id="Layer_1" xmlns="http://www.w3.org/2000/svg"
     xmlns:xlink="http://www.w3.org/1999/xlink"
     xmlns:ev="http://www.w3.org/2001/xml-events"
     x="0px" y="0px"
     preserveAspectRatio="xMinYMin meet" viewBox="0 0 489.625 188.076" enable-background="new 0 0 489.625 188.076"
     xml:space="preserve"
     class="self">
<path class="ampersand" fill="#000000" d="M120.967,129.45l1.478-2.623c5.28-9.314,5.28-20.635,5.237-21.335h-23.489L77.078,65.888
	c-6.56-9.897,0.25-18.165,7.847-18.165c5.861,0,10.621,4.628,10.621,10.331c0,0.746-0.08,1.472-0.232,2.172
	c-0.076,0.443-0.183,0.888-0.311,1.352c-0.643,2.232-2.147,4.333-4.442,6.221l11.35,16.208
	c26.259-19.145,14.326-56.011-17.793-56.011c-20.398,0-42.979,22.63-24.775,52.223l3.083,4.752l-3.869,3.091
	c-10.776,8.586-16.003,18.547-16.003,30.423c0,10.487,3.749,19.189,11.482,26.579c7.742,7.408,16.868,11.019,27.887,11.019
	c7.5,0,14.549-2.325,21.58-7.107l3.845-2.621l5.329,7.833h24.843L120.967,129.45z M80.189,134.34c-4.283,0-8.579-1.865-11.506-4.96
	c-2.863-3.015-4.314-6.705-4.314-10.972c0-3.293,1.21-8.777,7.002-12.906l4.125-2.945l18.297,25.265
	C93.794,127.823,89.774,134.34,80.189,134.34z"/>
    <g>
	<polygon class="pizza" fill="#000000" points="299.165,132.8 328.624,99.363 328.624,81.766 268.012,81.766 268.012,103.193 296.93,103.193
		268.012,136.496 268.012,154.391 328.624,154.391 328.624,132.8 	"/>
        <polygon class="pizza" fill="#000000" points="371.802,132.8 401.26,99.363 401.26,81.766 340.641,81.766 340.641,103.193 369.563,103.193
		340.641,136.496 340.641,154.391 401.26,154.391 401.26,132.8 	"/>
        <rect x="232.688" y="81.661" class="pizza" fill="#000000" width="22.553" height="72.73"/>
        <path class="pizza" fill="#000000" d="M183.841,80.56c-20.94,0-37.956,17.026-37.967,37.957l0,0v64.498h22.797v-29.7
		c4.65,2.029,9.771,3.173,15.169,3.173c20.93,0,37.966-17.028,37.966-37.967C221.808,97.585,204.771,80.56,183.841,80.56z
		 M183.841,133.711c-8.257,0-14.992-6.628-15.169-14.845v-0.688c0.178-8.217,6.912-14.847,15.169-14.847
		c8.376,0,15.19,6.817,15.19,15.188C199.031,126.901,192.217,133.711,183.841,133.711z"/>
        <g>
		<!-- (R) -->
            <path class="pizza reg" fill="#000000" d="M484.729,90.962c-2.578,0-4.584-2.071-4.584-4.584c0-2.517,2.034-4.612,4.612-4.612
			c2.578,0,4.588,2.071,4.588,4.584C489.341,88.867,487.307,90.962,484.729,90.962z M484.753,82.161
			c-2.391,0-4.194,1.907-4.194,4.217s1.789,4.194,4.166,4.194c2.391,0,4.194-1.907,4.194-4.217
			C488.923,84.039,487.129,82.161,484.753,82.161z M485.607,86.697l1.461,1.893h-0.864l-1.362-1.78h-1.207v1.78h-0.7v-4.715h2.109
			c1.043,0,1.78,0.545,1.78,1.423C486.824,86.073,486.316,86.528,485.607,86.697z M485.02,84.509h-1.385v1.677h1.348
			c0.662,0,1.118-0.305,1.118-0.85C486.1,84.814,485.697,84.509,485.02,84.509z"/>
            <!-- TM -->
            <!-- <path class="pizza" fill="#000000" d="M483.62,83.232h-1.488v4.187h-0.799v-4.187h-1.467v-0.628h3.754V83.232z M485.117,87.419h-0.796v-4.815
                h1.229l1.448,3.647l1.401-3.647h1.226v4.815h-0.796v-4.017h-0.025l-1.571,4.017h-0.515l-1.576-4.017h-0.024V87.419z"/> -->
	</g>
        <path class="pizza" fill="#000000" d="M466.825,154.435h18.321v-36.384c0-20.938-17.028-37.955-37.962-37.955
		c-20.929,0-37.957,17.025-37.957,37.955c0,20.938,17.028,37.963,37.957,37.963c8.786,0,14.333-2.751,19.641-5.4V154.435z
		 M462.357,118.398c-0.19,8.216-6.909,14.837-15.173,14.837c-8.363,0-15.188-6.803-15.188-15.184
		c0-8.371,6.824-15.182,15.188-15.182c8.264,0,14.982,6.629,15.173,14.834V118.398z"/>
</g>
    <g>
	<path class="circle" fill="#000000" opacity="0" d="M94.038,188.076C42.185,188.076,0,145.89,0,94.038C0,42.186,42.185,0,94.038,0s94.038,42.186,94.038,94.038
		C188.076,145.89,145.891,188.076,94.038,188.076z M94.038,15C50.457,15,15,50.457,15,94.038s35.457,79.038,79.038,79.038
		s79.038-35.456,79.038-79.038S137.62,15,94.038,15z"/>
</g>
</svg>